<svg width="400" height="250" xmlns="http://www.w3.org/2000/svg">
  <!-- Neural Network (4 columns) -->
  <g transform="translate(50, 40)">
    <!-- Column 1: 3 peace and love circles (centered relative to Column 2) -->
    <g transform="translate(0, 25)">
      <g transform="translate(0, 0)">
        <circle cx="0" cy="0" r="10" fill="#FFFFFF"/>
        <line x1="0" y1="-10" x2="0" y2="10" stroke="#000000" stroke-width="2"/>
        <line x1="0" y1="0" x2="-7" y2="7" stroke="#000000" stroke-width="2"/>
        <line x1="0" y1="0" x2="7" y2="7" stroke="#000000" stroke-width="2"/>
      </g>
      <g transform="translate(0, 50)">
        <circle cx="0" cy="0" r="10" fill="#FFFFFF"/>
        <line x1="0" y1="-10" x2="0" y2="10" stroke="#000000" stroke-width="2"/>
        <line x1="0" y1="0" x2="-7" y2="7" stroke="#000000" stroke-width="2"/>
        <line x1="0" y1="0" x2="7" y2="7" stroke="#000000" stroke-width="2"/>
      </g>
      <g transform="translate(0, 100)">
        <circle cx="0" cy="0" r="10" fill="#FFFFFF"/>
        <line x1="0" y1="-10" x2="0" y2="10" stroke="#000000" stroke-width="2"/>
        <line x1="0" y1="0" x2="-7" y2="7" stroke="#000000" stroke-width="2"/>
        <line x1="0" y1="0" x2="7" y2="7" stroke="#000000" stroke-width="2"/>
      </g>
    </g>
    <!-- Column 2: 4 peace and love circles -->
    <g transform="translate(100, 0)">
      <g transform="translate(0, 0)">
        <circle cx="0" cy="0" r="10" fill="#FFFFFF"/>
        <line x1="0" y1="-10" x2="0" y2="10" stroke="#000000" stroke-width="2"/>
        <line x1="0" y1="0" x2="-7" y2="7" stroke="#000000" stroke-width="2"/>
        <line x1="0" y1="0" x2="7" y2="7" stroke="#000000" stroke-width="2"/>
      </g>
      <g transform="translate(0, 50)">
        <circle cx="0" cy="0" r="10" fill="#FFFFFF"/>
        <line x1="0" y1="-10" x2="0" y2="10" stroke="#000000" stroke-width="2"/>
        <line x1="0" y1="0" x2="-7" y2="7" stroke="#000000" stroke-width="2"/>
        <line x1="0" y1="0" x2="7" y2="7" stroke="#000000" stroke-width="2"/>
      </g>
      <g transform="translate(0, 100)">
        <circle cx="0" cy="0" r="10" fill="#FFFFFF"/>
        <line x1="0" y1="-10" x2="0" y2="10" stroke="#000000" stroke-width="2"/>
        <line x1="0" y1="0" x2="-7" y2="7" stroke="#000000" stroke-width="2"/>
        <line x1="0" y1="0" x2="7" y2="7" stroke="#000000" stroke-width="2"/>
      </g>
      <g transform="translate(0, 150)">
        <circle cx="0" cy="0" r="10" fill="#FFFFFF"/>
        <line x1="0" y1="-10" x2="0" y2="10" stroke="#000000" stroke-width="2"/>
        <line x1="0" y1="0" x2="-7" y2="7" stroke="#000000" stroke-width="2"/>
        <line x1="0" y1="0" x2="7" y2="7" stroke="#000000" stroke-width="2"/>
      </g>
    </g>
    <!-- Column 3: 4 peace and love circles -->
    <g transform="translate(200, 0)">
      <g transform="translate(0, 0)">
        <circle cx="0" cy="0" r="10" fill="#FFFFFF"/>
        <line x1="0" y1="-10" x2="0" y2="10" stroke="#000000" stroke-width="2"/>
        <line x1="0" y1="0" x2="-7" y2="7" stroke="#000000" stroke-width="2"/>
        <line x1="0" y1="0" x2="7" y2="7" stroke="#000000" stroke-width="2"/>
      </g>
      <g transform="translate(0, 50)">
        <circle cx="0" cy="0" r="10" fill="#FFFFFF"/>
        <line x1="0" y1="-10" x2="0" y2="10" stroke="#000000" stroke-width="2"/>
        <line x1="0" y1="0" x2="-7" y2="7" stroke="#000000" stroke-width="2"/>
        <line x1="0" y1="0" x2="7" y2="7" stroke="#000000" stroke-width="2"/>
      </g>
      <g transform="translate(0, 100)">
        <circle cx="0" cy="0" r="10" fill="#FFFFFF"/>
        <line x1="0" y1="-10" x2="0" y2="10" stroke="#000000" stroke-width="2"/>
        <line x1="0" y1="0" x2="-7" y2="7" stroke="#000000" stroke-width="2"/>
        <line x1="0" y1="0" x2="7" y2="7" stroke="#000000" stroke-width="2"/>
      </g>
      <g transform="translate(0, 150)">
        <circle cx="0" cy="0" r="10" fill="#FFFFFF"/>
        <line x1="0" y1="-10" x2="0" y2="10" stroke="#000000" stroke-width="2"/>
        <line x1="0" y1="0" x2="-7" y2="7" stroke="#000000" stroke-width="2"/>
        <line x1="0" y1="0" x2="7" y2="7" stroke="#000000" stroke-width="2"/>
      </g>
    </g>
    <!-- Column 4: 2 peace and love circles -->
    <g transform="translate(300, 0)">
      <g transform="translate(0, 50)">
        <circle cx="0" cy="0" r="10" fill="#FFFFFF"/>
        <line x1="0" y1="-10" x2="0" y2="10" stroke="#000000" stroke-width="2"/>
        <line x1="0" y1="0" x2="-7" y2="7" stroke="#000000" stroke-width="2"/>
        <line x1="0" y1="0" x2="7" y2="7" stroke="#000000" stroke-width="2"/>
      </g>
      <g transform="translate(0, 100)">
        <circle cx="0" cy="0" r="10" fill="#FFFFFF"/>
        <line x1="0" y1="-10" x2="0" y2="10" stroke="#000000" stroke-width="2"/>
        <line x1="0" y1="0" x2="-7" y2="7" stroke="#000000" stroke-width="2"/>
        <line x1="0" y1="0" x2="7" y2="7" stroke="#000000" stroke-width="2"/>
      </g>
    </g>

    <!-- Connections between Column 1 and Column 2 -->
    <line x1="10" y1="25" x2="90" y2="0" stroke="#FFFFFF" stroke-width="2"/>
    <line x1="10" y1="75" x2="90" y2="0" stroke="#FFFFFF" stroke-width="2"/>
    <line x1="10" y1="125" x2="90" y2="0" stroke="#FFFFFF" stroke-width="2"/>
    <line x1="10" y1="25" x2="90" y2="50" stroke="#FFFFFF" stroke-width="2"/>
    <line x1="10" y1="75" x2="90" y2="50" stroke="#FFFFFF" stroke-width="2"/>
    <line x1="10" y1="125" x2="90" y2="50" stroke="#FFFFFF" stroke-width="2"/>
    <line x1="10" y1="25" x2="90" y2="100" stroke="#FFFFFF" stroke-width="2"/>
    <line x1="10" y1="75" x2="90" y2="100" stroke="#FFFFFF" stroke-width="2"/>
    <line x1="10" y1="125" x2="90" y2="100" stroke="#FFFFFF" stroke-width="2"/>
    <line x1="10" y1="25" x2="90" y2="150" stroke="#FFFFFF" stroke-width="2"/>
    <line x1="10" y1="75" x2="90" y2="150" stroke="#FFFFFF" stroke-width="2"/>
    <line x1="10" y1="125" x2="90" y2="150" stroke="#FFFFFF" stroke-width="2"/>

    <!-- Connections between Column 2 and Column 3 -->
    <line x1="110" y1="0" x2="190" y2="0" stroke="#FFFFFF" stroke-width="2"/>
    <line x1="110" y1="50" x2="190" y2="0" stroke="#FFFFFF" stroke-width="2"/>
    <line x1="110" y1="100" x2="190" y2="0" stroke="#FFFFFF" stroke-width="2"/>
    <line x1="110" y1="150" x2="190" y2="0" stroke="#FFFFFF" stroke-width="2"/>
    <line x1="110" y1="0" x2="190" y2="50" stroke="#FFFFFF" stroke-width="2"/>
    <line x1="110" y1="50" x2="190" y2="50" stroke="#FFFFFF" stroke-width="2"/>
    <line x1="110" y1="100" x2="190" y2="50" stroke="#FFFFFF" stroke-width="2"/>
    <line x1="110" y1="150" x2="190" y2="50" stroke="#FFFFFF" stroke-width="2"/>
    <line x1="110" y1="0" x2="190" y2="100" stroke="#FFFFFF" stroke-width="2"/>
    <line x1="110" y1="50" x2="190" y2="100" stroke="#FFFFFF" stroke-width="2"/>
    <line x1="110" y1="100" x2="190" y2="100" stroke="#FFFFFF" stroke-width="2"/>
    <line x1="110" y1="150" x2="190" y2="100" stroke="#FFFFFF" stroke-width="2"/>
    <line x1="110" y1="0" x2="190" y2="150" stroke="#FFFFFF" stroke-width="2"/>
    <line x1="110" y1="50" x2="190" y2="150" stroke="#FFFFFF" stroke-width="2"/>
    <line x1="110" y1="100" x2="190" y2="150" stroke="#FFFFFF" stroke-width="2"/>
    <line x1="110" y1="150" x2="190" y2="150" stroke="#FFFFFF" stroke-width="2"/>

    <!-- Connections between Column 3 and Column 4 -->
    <line x1="210" y1="0" x2="290" y2="50" stroke="#FFFFFF" stroke-width="2"/>
    <line x1="210" y1="50" x2="290" y2="50" stroke="#FFFFFF" stroke-width="2"/>
    <line x1="210" y1="100" x2="290" y2="50" stroke="#FFFFFF" stroke-width="2"/>
    <line x1="210" y1="150" x2="290" y2="50" stroke="#FFFFFF" stroke-width="2"/>
    <line x1="210" y1="0" x2="290" y2="100" stroke="#FFFFFF" stroke-width="2"/>
    <line x1="210" y1="50" x2="290" y2="100" stroke="#FFFFFF" stroke-width="2"/>
    <line x1="210" y1="100" x2="290" y2="100" stroke="#FFFFFF" stroke-width="2"/>
    <line x1="210" y1="150" x2="290" y2="100" stroke="#FFFFFF" stroke-width="2"/>
  </g>
</svg>